<svg xmlns="http://www.w3.org/2000/svg" width="98" height="50" viewBox="0 0 98 50" fill="none"><path d="M88.3797 48.0774L84.2039 38.857C84.0453 38.5409 83.781 38.3301 83.3581 38.3301C82.9353 38.3301 82.671 38.5409 82.5124 38.857L78.3366 48.0774C78.2837 48.1828 78.2309 48.3409 78.2309 48.4462C78.2309 48.9204 78.6009 49.3419 79.1823 49.3419C79.6052 49.3419 79.8166 49.1312 80.028 48.815L80.7152 47.2871L82.1424 43.9151L83.3581 40.9645L85.0496 45.0742H82.5653C82.3538 45.6538 82.0895 46.3387 81.8781 46.8129H85.7896L86.7411 48.7624C86.8997 49.0785 87.164 49.2892 87.5868 49.2892C88.1683 49.2892 88.5383 48.8151 88.5383 48.3935C88.4854 48.3409 88.4854 48.2355 88.3797 48.0774Z" fill="#77787B"/><path d="M71.2535 48.0774L67.0777 38.857C66.9191 38.5409 66.6548 38.3301 66.2319 38.3301C65.8091 38.3301 65.5448 38.5409 65.3862 38.857L61.2104 48.0774C61.1575 48.1828 61.1046 48.3409 61.1046 48.4462C61.1046 48.9204 61.4746 49.3419 62.0561 49.3419C62.479 49.3419 62.6904 49.1312 62.9018 48.815L63.589 47.2871L65.0162 43.9151L66.2319 40.9645L67.9234 45.0742H65.439C65.2276 45.6538 64.9633 46.3387 64.7519 46.8129H68.6634L69.562 48.7624C69.7206 49.0785 69.9849 49.2892 70.4078 49.2892C70.9892 49.2892 71.3592 48.8151 71.3592 48.3935C71.3064 48.3409 71.3064 48.2355 71.2535 48.0774Z" fill="#77787B"/><path d="M10.1489 48.0774L5.97303 38.857C5.81446 38.5409 5.55016 38.3301 5.12729 38.3301C4.70442 38.3301 4.44013 38.5409 4.28155 38.857L0.105718 48.0774C0.0528591 48.1828 0 48.3409 0 48.4462C0 48.9204 0.370011 49.3419 0.951457 49.3419C1.37433 49.3419 1.58576 49.1312 1.79719 48.815L2.48436 47.2871L3.91154 43.9151L5.12729 40.9645L6.81877 45.0742H4.33441C4.12298 45.6538 3.85868 46.3387 3.64725 46.8129H7.55879L8.51025 48.7624C8.66882 49.0785 8.93312 49.2892 9.35599 49.2892C9.93743 49.2892 10.3074 48.8151 10.3074 48.3935C10.2546 48.3409 10.2017 48.2355 10.1489 48.0774Z" fill="#77787B"/><path d="M12.5804 49.2892C12.0518 49.2892 11.5761 48.8151 11.5761 48.2882V39.3839C11.5761 38.857 12.0518 38.3828 12.5804 38.3828C13.109 38.3828 13.5318 38.857 13.5318 39.3839V47.4452H18.2891C18.8177 47.4452 19.2406 47.8667 19.2406 48.3935C19.2406 48.9204 18.8177 49.3419 18.2891 49.3419H12.5804V49.2892Z" fill="#77787B"/><path d="M25.425 45.1269H22.3064V48.4462C22.3064 48.9731 21.8835 49.4473 21.302 49.4473C20.7735 49.4473 20.2977 49.0258 20.2977 48.4462V39.4892C20.2977 38.9624 20.7206 38.4882 21.302 38.4882H25.3722C28.068 38.4882 29.2309 39.9634 29.2309 41.8075C29.2837 43.6516 28.1208 45.1269 25.425 45.1269ZM25.7422 40.3323H22.3592V43.2828H25.7422C26.8522 43.2828 27.3279 42.5452 27.3279 41.8075C27.2751 41.1226 26.7994 40.3323 25.7422 40.3323Z" fill="#77787B"/><path d="M49.1057 48.4462C49.1057 48.9731 48.7357 49.4473 48.1014 49.4473C47.6785 49.4473 47.4142 49.2366 47.2028 48.9204L45.2999 45.0215H42.0755V48.4462C42.0755 48.9731 41.6526 49.4473 41.0712 49.4473C40.5426 49.4473 40.0669 49.0258 40.0669 48.4462V39.4892C40.0669 38.9624 40.4897 38.4882 41.0712 38.4882H45.247C47.9428 38.4882 49.1057 39.8054 49.1057 41.7021C49.1057 42.9667 48.5771 44.0731 47.3085 44.6L49 47.972C49.0529 48.1301 49.1057 48.2882 49.1057 48.4462ZM45.5113 40.3323H42.0755V43.2828H45.5113C46.6214 43.2828 47.0971 42.4925 47.0971 41.7548C47.0971 41.0699 46.6214 40.3323 45.5113 40.3323Z" fill="#77787B"/><path d="M60.0475 47.5505C58.9903 48.8677 57.2459 49.5 55.6073 49.5C52.1715 49.5 50.0572 46.971 50.0572 43.9151C50.0572 40.6484 52.4358 38.3301 55.5545 38.3301C56.8231 38.3301 58.2503 38.7516 59.1489 39.7C59.3603 39.9108 59.466 40.1215 59.466 40.3849C59.466 40.8591 59.1489 41.2806 58.5674 41.2806C58.356 41.2806 58.1445 41.1753 57.9331 41.0699C57.2988 40.5957 56.6645 40.1742 55.5545 40.1742C53.4401 40.1742 52.0129 41.7548 52.0129 43.9151C52.0129 46.128 53.3344 47.7613 55.5545 47.7613C56.6645 47.7613 57.616 47.3925 58.2503 46.8129V45.1269H56.9288C56.4531 45.1269 56.0302 44.7581 56.0302 44.2312C56.0302 43.7043 56.4531 43.3355 56.9288 43.3355H59.2017C59.7832 43.3355 60.206 43.8097 60.206 44.3366V46.9183C60.3118 47.1817 60.206 47.3398 60.0475 47.5505Z" fill="#77787B"/><path d="M78.6009 40.3849H75.7994V48.4462C75.7994 48.9731 75.3236 49.4473 74.795 49.4473C74.2664 49.4473 73.8436 48.9731 73.8436 48.4462V40.3849H71.0421C70.5135 40.3849 70.0906 39.9634 70.0906 39.4366C70.0906 38.9097 70.5135 38.4882 71.0421 38.4882H78.6009C79.1294 38.4882 79.5523 38.9097 79.5523 39.4366C79.5523 39.9634 79.1294 40.3849 78.6009 40.3849Z" fill="#77787B"/><path d="M93.7184 49.5C92.397 49.5 90.9169 49.0785 89.9655 48.3935C89.6483 48.1301 89.4369 47.814 89.4369 47.4452C89.4369 46.971 89.754 46.6021 90.2826 46.6021C90.4412 46.6021 90.5998 46.6548 90.8112 46.7602C91.7098 47.2871 92.2913 47.814 93.8242 47.814C95.3571 47.814 95.9914 47.1817 95.9914 46.4441C95.9914 45.6538 95.3571 45.2323 93.4013 44.7054C90.4412 43.9151 89.5955 42.9667 89.5955 41.386C89.5955 39.4366 91.2869 38.3828 93.877 38.3828C94.4585 38.3828 95.2513 38.4882 95.9385 38.6989C96.6785 38.9097 97.63 39.3839 97.63 40.0161C97.63 40.4376 97.3657 40.9118 96.8371 40.9118C96.7314 40.9118 96.5728 40.9118 96.4671 40.8064C95.7271 40.4903 94.9342 40.1215 93.9299 40.1215C92.5027 40.1215 91.6041 40.4903 91.6041 41.3333C91.6041 42.1237 92.2384 42.3871 94.1942 42.9667C96.4142 43.5989 98 44.2312 98 46.3387C97.8943 48.1301 96.4671 49.5 93.7184 49.5Z" fill="#77787B"/><path d="M38.6926 48.0774L34.5167 38.857C34.3581 38.5409 34.0938 38.3301 33.671 38.3301C33.2481 38.3301 32.9838 38.5409 32.8252 38.857L28.6494 48.0774C28.5965 48.1828 28.5437 48.3409 28.5437 48.4462C28.5437 48.9204 28.9137 49.3419 29.4951 49.3419C29.918 49.3419 30.1294 49.1312 30.3409 48.815L31.028 47.2871L32.4552 43.9151L33.671 40.9645L35.3625 45.0742H32.8781C32.6667 45.6538 32.4024 46.3387 32.1909 46.8129H36.1025L37.0539 48.7624C37.2125 49.0785 37.4768 49.2892 37.8997 49.2892C38.4811 49.2892 38.8511 48.8151 38.8511 48.3935C38.7983 48.3409 38.7454 48.2355 38.6926 48.0774Z" fill="#77787B"/><path d="M28.7551 20.6796L38.8511 30.743H18.6063L28.7551 20.6796Z" fill="#ED1D24"/><path d="M38.8511 10.5634V30.743L28.7551 20.6796L38.8511 10.5634Z" fill="#F58220"/><path d="M49 0.5L59.096 10.5634H38.8511L49 0.5Z" fill="#0072B5"/><path d="M38.8511 30.743V10.5634L49 20.6796L38.8511 30.743Z" fill="#FDB913"/><path d="M38.8511 10.5634H59.096L49 20.6796L38.8511 10.5634Z" fill="#009EDB"/><path d="M69.192 20.6796L59.096 30.743H79.3409L69.192 20.6796Z" fill="#00A651"/><path d="M59.096 10.5634V30.743L69.192 20.6796L59.096 10.5634Z" fill="#ADC32B"/><path d="M59.096 30.743V10.5634L49 20.6796L59.096 30.743Z" fill="#6DCFF6"/></svg>