<svg version="1.2" xmlns="http://www.w3.org/2000/svg" viewBox="0 0 1032 255" width="500" height="124">
	<g>
		<path style="fill: #fff" d="m467.5 99.3h197.1l-44.4 56.1h-152.7v98 0.9h-342.1l47.5-65.5h216v-184.8h636.4l-49.6 65.5h-508.2z"/>
		<path style="fill: #fff" d="m209 88.5l-117.2 165.8h-91.4l160.1-226c5.2-7.2 11.8-14 19.8-19.7q11.9-8.6 30.2-8.6c11.7 0 21.4 2.7 29.3 8.1 7.8 5.3 14.5 12 19.9 20l98.4 142.5h-93.1c-3.9-5.8-56-82.1-56-82.1z"/>
		<path style="fill: #fff" d="m1032 172.7c0 12.7-2 23.9-6 34q-5.9 15.4-19 25.8c-8.7 7-19.8 12.4-33.4 16.1-13.5 3.7-29.8 5.7-48.7 5.7h-232.4l49.6-63.3h188.8c9.2 0 15.9-1.9 20.1-4.8 4.3-2.9 6.4-8 6.4-14.5 0-6.5-2.1-11-6.4-13.8-4.2-2.7-10.9-4-20.1-4h-135.8q-24.3 0-41.8-5.3c-11.7-3.4-21.4-8.3-29.1-14.5-7.7-6.3-13.4-13.7-17.2-22.5-3-7.2-4.8-15.9-5.3-23.2h74.4c0.3 5.1 2.5 10.1 6.5 12.5 4.3 2.6 11 4.3 19.9 4.3h135.9c30.5 0 53.8 5.1 69.7 16.4 15.9 11.3 23.9 28.2 23.9 51.1z"/>
	</g>
</svg>